# xmcd
#
# Track frame offsets:
#	150
#	23974
#	42807
#	60007
#	81585
#	102215
#	116256
#	139684
#
# Disc length: 2134 seconds
# Revision: 0
# Processed by: cddbd v1.5.2PL0 Copyright (c) Steve Scherf et al.
# Submitted via: dBpowerAMP V12.0
#
DISCID=5b085408
DTITLE=Dee Dee, Barry and The Movements - Soul Hour
DYEAR=2011
DGENRE=Soul
TTITLE0=Get out of my life woman
TTITLE1=Summertime
TTITLE2=soultime
TTITLE3=Funky-Funky Broadway
TTITLE4=Midnight Hour
TTITLE5=It's alright
TTITLE6=Willow weep for me
TTITLE7=Hold on, I'm coming
EXTD=
EXTT0=
EXTT1=
EXTT2=
EXTT3=
EXTT4=
EXTT5=
EXTT6=
EXTT7=
PLAYORDER=
